<?xml version="1.0" standalone="no"?>
<!DOCTYPE svg PUBLIC "-//W3C//DTD SVG 20010904//EN"
 "http://www.w3.org/TR/2001/REC-SVG-20010904/DTD/svg10.dtd">
<svg version="1.0" xmlns="http://www.w3.org/2000/svg"
 width="605.000000pt" height="1280.000000pt" viewBox="0 0 605.000000 1280.000000"
 preserveAspectRatio="xMidYMid meet">
<metadata>
Created by potrace 1.15, written by Peter Selinger 2001-2017
</metadata>
<g transform="translate(0.000000,1280.000000) scale(0.100000,-0.100000)"
fill="#000000" stroke="none">
<path d="M2800 12456 c-106 -31 -191 -80 -253 -145 -73 -76 -92 -138 -107
-339 -12 -169 -15 -182 -39 -183 -9 0 -63 -4 -120 -8 -100 -7 -105 -9 -133
-40 -18 -20 -28 -42 -28 -62 0 -34 21 -46 150 -85 82 -24 81 -22 57 -101 -9
-29 -12 -53 -6 -53 5 0 9 -7 9 -16 0 -9 19 -55 41 -102 40 -82 41 -86 25 -112
-9 -16 -16 -45 -16 -67 0 -69 92 -303 119 -303 5 0 20 -12 35 -26 24 -25 26
-33 26 -114 0 -82 -1 -89 -25 -104 -14 -9 -25 -24 -25 -34 0 -9 -7 -26 -15
-36 -8 -11 -15 -28 -15 -39 0 -11 -10 -27 -23 -37 -13 -10 -33 -38 -45 -62
-15 -29 -40 -54 -77 -78 -30 -19 -54 -42 -55 -51 0 -13 -10 -15 -53 -11 -47 4
-66 -2 -173 -48 -97 -43 -131 -53 -183 -55 -60 -2 -67 -5 -98 -38 -18 -20 -38
-56 -44 -82 l-11 -45 -52 0 c-64 -1 -88 -18 -120 -91 -23 -54 -27 -57 -98 -86
-40 -17 -116 -43 -170 -57 -168 -46 -233 -77 -364 -177 -48 -36 -73 -48 -115
-53 -44 -6 -58 -13 -83 -43 -17 -20 -97 -102 -177 -182 -183 -184 -211 -233
-217 -378 -5 -118 21 -304 56 -393 44 -115 102 -222 188 -348 87 -128 123
-191 143 -254 18 -56 85 -154 120 -174 24 -14 29 -23 25 -41 -4 -16 -1 -25 10
-29 9 -3 16 -12 16 -20 0 -18 253 -400 290 -438 22 -22 34 -27 54 -22 33 8
223 136 260 175 47 49 59 42 90 -51 15 -46 41 -114 59 -152 27 -60 29 -70 16
-80 -27 -20 -29 -45 -7 -101 23 -61 96 -137 156 -162 30 -12 35 -12 59 7 14
11 34 20 44 20 22 0 19 -28 -19 -135 -18 -54 -26 -104 -32 -215 -5 -80 -18
-194 -29 -255 -12 -60 -21 -139 -21 -175 0 -36 -7 -110 -15 -165 -15 -105 -19
-203 -9 -229 3 -9 13 -16 21 -16 13 0 14 -8 9 -42 -4 -24 -2 -113 3 -198 6
-85 15 -238 21 -340 5 -102 16 -228 24 -280 8 -52 20 -135 26 -185 6 -49 30
-223 52 -385 56 -416 55 -396 23 -475 -21 -54 -28 -90 -32 -180 l-6 -111 41
-86 c23 -47 55 -102 71 -121 40 -45 40 -84 0 -178 -60 -141 -58 -319 5 -440
48 -90 74 -177 85 -283 10 -83 13 -90 51 -132 36 -39 40 -49 40 -96 0 -29 -7
-75 -15 -101 -25 -84 -12 -129 61 -207 47 -50 58 -84 69 -210 5 -56 2 -106
-14 -199 -17 -94 -20 -143 -15 -205 5 -63 3 -90 -9 -119 -19 -44 -15 -60 19
-75 13 -7 24 -20 24 -31 0 -16 -9 -21 -47 -26 -145 -19 -410 -101 -518 -160
-33 -18 -78 -38 -100 -45 -22 -7 -61 -24 -87 -38 -78 -41 -88 -117 -25 -189
65 -74 220 -160 328 -182 56 -12 100 -12 789 -8 382 3 420 6 699 63 108 22
308 29 434 15 94 -10 275 -43 446 -81 89 -20 759 -7 1001 19 334 36 433 55
466 88 37 38 -25 185 -106 253 -54 46 -104 69 -248 116 -183 60 -264 110 -283
175 -11 35 -10 44 9 78 20 35 21 43 10 77 -21 63 -68 82 -221 90 -103 6 -127
10 -127 22 0 8 -22 58 -49 111 -26 53 -59 128 -71 166 -13 39 -45 119 -72 179
l-50 110 42 82 43 82 0 169 c0 119 -5 199 -18 273 -23 131 -23 153 2 270 12
52 33 178 47 280 30 206 60 382 81 480 19 85 19 241 0 360 -9 52 -36 174 -62
270 -63 240 -70 276 -83 425 -18 214 -49 410 -91 592 -36 155 -39 176 -28 215
6 24 13 109 14 190 2 130 5 151 24 180 11 18 30 53 42 77 20 41 20 49 9 100
-7 31 -30 86 -52 123 -43 75 -71 145 -63 159 3 5 24 13 45 19 36 10 40 14 40
43 0 18 -7 53 -14 79 -8 26 -17 80 -21 120 -3 40 -13 128 -22 196 -8 67 -13
132 -10 142 3 11 2 22 -2 25 -5 2 -11 37 -15 77 -4 40 -11 91 -17 113 -6 22
-12 141 -14 265 -2 202 -11 335 -31 484 -4 27 -1 127 6 221 13 171 5 429 -20
660 -5 44 -9 194 -10 334 -1 324 -33 676 -66 747 -10 20 -55 74 -101 120 -88
88 -157 129 -293 174 -121 40 -235 92 -270 125 -19 18 -54 44 -76 58 -44 27
-104 106 -104 135 0 10 6 27 14 38 8 11 32 55 54 99 39 78 51 115 87 280 10
44 26 113 36 154 11 41 19 91 19 111 0 21 6 55 14 76 7 22 16 65 20 97 4 32
14 70 22 85 7 15 14 38 14 52 1 66 5 70 91 70 124 0 179 34 179 110 -1 107
-123 214 -260 229 l-55 6 0 230 0 230 -28 57 c-36 74 -109 139 -211 188 -98
47 -165 66 -276 80 -133 16 -254 11 -340 -14z m-970 -3566 c52 -28 126 -220
175 -455 39 -190 56 -255 90 -354 18 -53 25 -96 25 -148 0 -44 6 -89 16 -111
12 -31 13 -44 3 -79 -9 -32 -9 -54 0 -87 6 -25 11 -51 11 -60 0 -26 -69 18
-160 102 -74 69 -83 81 -72 95 12 14 7 29 -33 101 -26 47 -57 94 -71 105 -13
10 -44 45 -67 77 -44 59 -129 144 -145 144 -4 0 -14 16 -21 35 -7 19 -16 35
-20 35 -5 0 -11 15 -14 34 -10 64 -60 175 -102 229 -31 38 -59 61 -104 83 -33
16 -61 32 -61 35 0 4 21 12 46 18 61 16 125 49 224 116 46 31 92 55 108 56 15
0 50 9 77 19 60 22 70 23 95 10z m1499 -4949 c23 -78 32 -255 26 -501 -8 -325
-21 -410 -60 -410 -11 0 -15 12 -15 43 0 24 -11 124 -25 223 -31 222 -31 236
1 320 21 56 27 91 31 184 6 184 18 221 42 141z m1130 -2295 c12 -18 37 -81 56
-140 19 -59 43 -116 54 -127 10 -11 32 -51 49 -88 l30 -68 -52 -7 c-87 -10
-110 -8 -124 14 -9 15 -23 20 -57 20 -77 0 -96 60 -50 158 37 80 55 149 55
214 0 32 4 58 9 58 5 0 19 -15 30 -34z"/>
</g>
</svg>
