<?xml version="1.0" standalone="no"?>
<!DOCTYPE svg PUBLIC "-//W3C//DTD SVG 20010904//EN"
 "http://www.w3.org/TR/2001/REC-SVG-20010904/DTD/svg10.dtd">
<svg version="1.0" xmlns="http://www.w3.org/2000/svg"
 width="1280.000000pt" height="1060.000000pt" viewBox="0 0 1280.000000 1060.000000"
 preserveAspectRatio="xMidYMid meet">
<metadata>
Created by potrace 1.15, written by Peter Selinger 2001-2017
</metadata>
<g transform="translate(0.000000,1060.000000) scale(0.100000,-0.100000)"
fill="#000000" stroke="none">
<path d="M5304 9679 c-3 -5 11 -70 31 -144 39 -143 43 -207 13 -213 -10 -2
-67 37 -135 91 -65 52 -128 100 -141 106 -29 15 -38 9 -141 -83 -79 -71 -91
-72 -91 -10 0 61 -11 94 -32 94 -18 0 -19 -7 -18 -97 2 -120 2 -123 -8 -123
-21 0 -31 52 -25 138 7 101 2 110 -51 92 -33 -11 -34 -12 -28 -53 3 -23 13
-76 24 -117 35 -143 37 -137 -60 -232 -74 -73 -142 -158 -142 -179 0 -8 44
-26 88 -34 26 -5 32 -11 27 -23 -22 -54 -65 -189 -65 -204 0 -29 -12 -22 -75
43 -95 97 -103 98 -296 49 -75 -20 -109 -21 -387 -21 l-305 0 6 -77 c8 -88 36
-207 73 -304 50 -131 183 -223 389 -267 l80 -18 -3 -35 c-3 -26 3 -43 24 -67
23 -28 25 -35 15 -57 -24 -53 1 -144 44 -160 13 -5 13 -10 -1 -35 -18 -35 -5
-66 29 -73 12 -3 131 -8 265 -11 134 -4 257 -11 275 -17 40 -14 93 -52 113
-83 15 -23 14 -26 -23 -63 -38 -39 -39 -39 -132 -46 -52 -3 -125 -16 -162 -28
l-67 -21 -27 21 c-15 12 -40 22 -56 22 -15 0 -57 16 -94 36 -58 30 -82 36
-169 44 -163 15 -220 13 -247 -9 -23 -19 -23 -18 -88 25 -43 29 -77 44 -97 44
-27 0 -42 12 -96 73 -35 39 -79 92 -98 117 -19 25 -67 79 -105 120 -62 67
-309 366 -328 397 -4 6 4 28 18 49 19 28 22 40 14 50 -9 11 -5 16 17 24 80 29
99 58 69 104 -23 35 -42 39 -116 21 -87 -20 -106 -19 -114 6 -5 15 0 29 18 47
28 30 57 108 57 150 -1 15 -7 38 -15 52 -8 14 -14 40 -15 58 0 47 -15 69 -60
92 -32 16 -41 28 -52 66 -20 73 -50 89 -161 89 -87 0 -97 -2 -180 -41 -77 -36
-92 -40 -117 -31 -36 14 -60 -4 -60 -42 0 -25 -3 -27 -35 -23 -42 5 -130 -15
-145 -33 -8 -10 -6 -18 11 -34 13 -11 31 -23 41 -27 25 -8 23 -22 -6 -36 -36
-16 -39 -37 -12 -73 18 -24 22 -35 14 -43 -9 -9 -8 -18 0 -37 15 -32 -6 -79
-38 -88 -17 -4 -20 -13 -20 -62 0 -31 -5 -65 -11 -77 -16 -30 -3 -65 29 -76
16 -5 41 -22 55 -36 14 -14 33 -26 41 -26 10 0 13 -6 10 -15 -4 -8 1 -26 10
-40 10 -16 12 -26 5 -30 -7 -5 -5 -14 4 -29 15 -22 33 -85 28 -100 -1 -5 3
-31 9 -58 11 -45 14 -48 45 -48 18 0 54 9 80 20 41 18 49 18 78 6 57 -25 131
-90 152 -132 11 -22 32 -55 48 -73 15 -18 27 -45 27 -60 0 -18 12 -38 36 -62
33 -31 114 -177 114 -204 0 -7 17 -38 38 -71 21 -32 41 -66 44 -74 3 -8 55
-83 116 -167 61 -84 126 -178 143 -210 56 -100 264 -296 404 -378 21 -13 68
-236 95 -463 25 -198 38 -232 107 -262 27 -12 59 -28 72 -37 l23 -15 -70 -72
c-134 -136 -268 -334 -257 -378 11 -41 74 -117 128 -152 28 -19 82 -44 118
-56 59 -18 67 -24 72 -50 12 -59 118 -130 195 -130 13 0 22 -5 20 -10 -5 -17
-229 -290 -273 -335 -22 -22 -81 -79 -130 -127 -50 -47 -115 -115 -146 -150
-55 -61 -62 -66 -214 -132 -87 -38 -170 -72 -184 -76 -29 -8 -427 -219 -475
-252 -40 -27 -66 -57 -129 -148 -46 -67 -52 -82 -55 -138 -5 -75 13 -131 65
-199 33 -43 35 -50 29 -97 -18 -138 -25 -230 -25 -328 -1 -60 -4 -108 -8 -108
-5 0 -60 9 -123 20 -148 26 -309 37 -337 22 -31 -17 -53 -73 -53 -136 0 -77
21 -123 64 -141 37 -16 220 -40 384 -51 100 -6 102 -7 102 -31 0 -14 13 -83
30 -155 16 -71 30 -137 30 -146 0 -23 -203 -205 -367 -329 -74 -57 -165 -131
-202 -165 -157 -148 -260 -221 -457 -324 -158 -82 -164 -87 -164 -134 0 -37 0
-37 -56 -48 -74 -15 -168 -66 -224 -122 l-45 -45 310 -6 c171 -4 783 -9 1360
-13 1152 -7 2765 -23 3220 -31 160 -3 461 -7 670 -10 209 -3 679 -10 1045 -15
366 -5 1059 -14 1540 -20 481 -5 1053 -12 1270 -15 217 -3 481 -6 585 -7 l190
-3 -3 110 c-6 206 -21 224 -181 226 -133 2 -167 8 -163 33 2 10 -4 29 -13 42
-9 14 -13 33 -10 43 3 10 1 31 -5 47 -6 16 -116 135 -244 264 -231 233 -423
453 -671 770 -71 91 -163 206 -205 255 -112 134 -283 350 -490 620 -277 362
-305 398 -339 429 -17 17 -31 35 -31 42 0 7 -16 22 -36 34 -19 13 -32 26 -27
30 4 4 53 44 109 88 123 97 236 209 418 412 76 85 167 183 202 217 48 46 64
69 64 89 0 15 9 38 21 50 27 29 36 97 18 131 -8 14 -28 35 -45 47 -69 46 -275
206 -394 305 -69 57 -249 203 -400 323 -151 121 -339 272 -418 336 -133 109
-294 231 -330 251 -13 7 -4 28 56 123 39 62 80 122 91 132 12 11 21 28 21 38
0 10 20 60 45 111 24 51 67 162 96 247 37 112 58 160 75 173 17 13 24 29 24
52 0 31 180 505 202 532 5 6 8 17 6 25 -1 7 7 40 19 73 26 71 71 220 108 359
15 55 31 107 36 115 15 27 61 273 61 330 1 67 -24 94 -81 89 -46 -4 -59 -29
-101 -198 -18 -69 -36 -129 -41 -134 -5 -6 -9 -23 -9 -39 0 -53 -128 -472
-157 -516 -9 -14 -16 -33 -15 -41 3 -17 -184 -499 -199 -514 -5 -6 -9 -18 -9
-28 0 -9 -62 -140 -137 -290 -75 -150 -138 -279 -139 -286 -3 -18 -112 -213
-128 -230 -9 -9 -37 0 -134 48 -90 45 -148 66 -218 81 -57 12 -117 32 -148 50
-30 16 -160 70 -290 119 -130 49 -244 93 -253 99 -12 6 -23 38 -34 100 -10 50
-21 100 -24 111 -5 15 -2 20 12 20 10 1 36 8 58 16 22 9 60 20 84 25 51 10
108 46 116 71 3 9 21 22 39 28 64 21 273 225 280 274 1 7 16 28 34 45 42 42
59 99 44 148 -8 28 -8 42 2 62 23 46 26 78 11 127 -8 27 -15 73 -15 101 0 46
-5 58 -34 90 -23 26 -35 51 -39 81 -6 51 -27 77 -72 92 -22 7 -35 19 -39 35
-13 53 -88 115 -139 115 -16 0 -28 9 -35 26 -15 31 -72 56 -123 53 -21 -2 -44
2 -51 9 -17 17 -87 15 -121 -3 -21 -10 -34 -12 -47 -5 -10 6 -33 10 -49 10
l-31 0 45 55 c59 73 89 134 121 243 18 64 24 107 22 152 l-3 63 -155 -4 c-182
-5 -448 -4 -575 2 -69 3 -102 0 -142 -14 l-51 -18 -26 26 c-45 45 -64 37 -282
-112 -58 -40 -109 -73 -113 -73 -4 0 -22 39 -40 88 -18 48 -57 133 -86 189
l-53 102 29 6 c15 4 46 19 68 35 37 27 39 32 30 58 -5 16 -38 52 -72 80 l-62
50 -2 114 c-2 143 -19 289 -34 299 -17 10 -39 0 -40 -20 0 -9 -7 -2 -16 16
-17 34 -38 48 -49 32z m1180 -1534 c79 -21 83 -24 47 -46 -17 -10 -46 -40 -65
-66 -19 -27 -44 -54 -56 -61 -12 -7 -33 -38 -47 -68 -13 -29 -37 -66 -52 -82
-19 -19 -30 -43 -35 -76 -6 -37 -16 -57 -42 -81 -32 -30 -39 -52 -34 -99 2
-24 -20 -66 -35 -66 -6 0 -22 11 -35 25 -13 14 -38 29 -54 33 -25 7 -34 16
-45 53 -15 45 -111 150 -193 212 -23 16 -35 33 -32 41 8 22 371 216 403 216 4
0 24 -16 45 -35 45 -41 65 -43 102 -12 l27 23 -27 46 c-14 24 -23 48 -19 51
11 12 87 8 147 -8z m576 -94 c20 -4 53 -24 75 -44 22 -20 45 -37 52 -37 13 0
63 -61 63 -77 0 -6 11 -22 25 -37 14 -15 25 -34 25 -42 0 -9 5 -25 12 -37 10
-19 18 -96 17 -162 0 -11 0 -40 0 -64 0 -35 -6 -51 -29 -78 -17 -19 -30 -43
-30 -55 0 -11 -18 -38 -40 -59 -22 -22 -43 -53 -47 -69 -4 -22 -11 -30 -27
-30 -31 0 -100 -42 -111 -68 -10 -23 -16 -25 -87 -37 -24 -4 -46 -16 -62 -35
-19 -23 -33 -30 -60 -30 -20 0 -36 4 -36 9 0 18 -184 167 -282 229 -57 35
-105 66 -106 67 -11 10 21 107 42 128 17 17 26 41 31 81 4 31 11 56 15 56 5 0
18 21 31 48 12 26 35 63 50 82 15 19 35 54 44 78 15 36 21 42 46 42 20 0 35 9
53 33 13 17 51 48 82 67 47 28 72 36 129 41 38 3 75 6 80 7 6 1 26 -2 45 -7z
m-2626 -56 c104 -19 192 -37 195 -41 8 -8 -182 5 -234 17 -22 5 -93 9 -157 9
-108 0 -117 2 -123 20 -16 51 9 50 319 -5z m71 -159 c124 -27 126 -29 65 -37
-30 -4 -128 -7 -217 -8 -155 -1 -162 0 -168 19 -4 12 -1 28 6 37 12 13 31 15
129 10 63 -3 147 -13 185 -21z"/>
</g>
</svg>
