<?xml version="1.0" standalone="no"?>
<!DOCTYPE svg PUBLIC "-//W3C//DTD SVG 20010904//EN"
 "http://www.w3.org/TR/2001/REC-SVG-20010904/DTD/svg10.dtd">
<svg version="1.0" xmlns="http://www.w3.org/2000/svg"
 width="640.000000pt" height="1280.000000pt" viewBox="0 0 640.000000 1280.000000"
 preserveAspectRatio="xMidYMid meet">
<metadata>
Created by potrace 1.15, written by Peter Selinger 2001-2017
</metadata>
<g transform="translate(0.000000,1280.000000) scale(0.100000,-0.100000)"
fill="#000000" stroke="none">
<path d="M2084 12764 c-4 -15 -33 -56 -65 -91 -33 -36 -59 -73 -59 -83 0 -10
-11 -25 -25 -34 -30 -20 -32 -54 -10 -170 9 -44 12 -83 8 -87 -5 -4 -20 -11
-35 -14 -24 -6 -29 -3 -38 21 -15 39 -5 72 25 80 32 8 32 18 -1 33 -22 10 -30
9 -44 -4 -9 -8 -22 -15 -28 -15 -6 0 -16 -9 -22 -20 -8 -16 -7 -27 6 -49 15
-25 15 -38 6 -104 -15 -98 -7 -120 55 -149 38 -18 53 -33 71 -70 12 -27 29
-48 36 -48 9 0 3 -11 -15 -29 -31 -31 -33 -39 -20 -59 11 -19 184 56 189 81 3
17 -3 18 -60 15 l-63 -3 -2 30 c-2 17 -4 41 -5 55 -3 20 3 27 32 37 38 13 119
17 145 7 27 -11 -3 -23 -41 -17 -29 5 -34 2 -39 -20 -8 -31 10 -67 33 -67 9 0
28 9 42 20 14 11 29 20 33 20 5 0 25 14 46 30 21 17 54 35 75 41 69 19 92 64
61 119 -22 38 -18 80 11 121 29 42 26 71 -10 94 -20 13 -26 13 -60 -4 -56 -29
-64 -21 -59 52 8 96 -9 142 -77 207 -31 30 -60 65 -64 78 -10 30 -24 28 -32
-4z"/>
<path d="M2164 11986 c-3 -7 5 -40 17 -72 46 -126 53 -163 41 -198 -7 -18 -12
-73 -12 -122 -1 -121 -16 -232 -37 -263 l-17 -26 -6 29 c-6 37 -25 44 -40 16
-16 -31 -5 -64 26 -79 32 -14 20 -35 -17 -29 -19 2 -25 10 -29 41 -3 21 -9 38
-15 38 -15 0 -31 -92 -54 -303 -29 -263 -28 -355 10 -535 8 -42 14 -53 30 -53
22 0 22 3 9 -131 -12 -118 -26 -169 -45 -169 -56 0 -212 -300 -207 -400 2 -44
2 -83 -1 -135 -2 -56 34 -125 99 -188 l54 -52 0 -116 c0 -112 1 -119 40 -214
22 -54 40 -111 40 -126 0 -16 -24 -63 -60 -118 -33 -50 -60 -94 -60 -97 0 -3
18 -28 39 -57 22 -29 49 -78 61 -109 19 -52 25 -59 58 -68 21 -5 65 -29 99
-53 l61 -43 -34 -55 c-84 -136 -158 -333 -210 -563 -29 -130 24 -215 167 -272
l64 -25 19 23 c10 13 39 64 63 113 42 83 83 148 83 131 0 -4 -27 -58 -59 -119
-32 -62 -76 -159 -96 -217 -20 -58 -50 -135 -66 -173 -37 -85 -49 -186 -25
-206 15 -12 21 -12 44 6 15 11 39 42 54 69 38 67 35 35 -7 -80 -38 -106 -45
-166 -19 -166 12 0 14 -7 10 -27 -15 -76 -25 -280 -15 -318 6 -22 14 -61 18
-88 10 -66 23 -75 55 -40 32 34 33 26 5 -30 -27 -52 -78 -269 -86 -363 -7 -83
2 -143 22 -151 8 -3 38 12 67 33 l53 39 -52 -58 c-93 -103 -136 -224 -148
-412 l-6 -100 32 35 c29 32 31 33 25 10 -57 -210 -58 -221 -54 -368 3 -78 8
-145 12 -149 3 -3 17 -1 31 5 31 14 31 12 1 -33 -31 -46 -43 -115 -26 -155 17
-40 7 -47 -35 -27 -32 15 -35 15 -51 0 -13 -13 -15 -28 -10 -72 22 -197 18
-261 -19 -261 -8 0 -39 -11 -70 -25 -65 -28 -78 -51 -96 -165 -8 -52 -8 -99 1
-176 11 -103 10 -106 -14 -159 -15 -34 -21 -57 -15 -61 6 -3 37 11 70 31 41
25 79 39 122 46 34 5 227 9 429 9 l366 0 155 100 c85 55 164 100 175 100 10 0
48 -16 83 -35 35 -20 82 -44 104 -54 22 -10 56 -35 74 -55 l35 -36 265 -1
c382 0 666 -14 720 -33 24 -9 55 -16 68 -16 l25 0 -31 35 c-17 20 -31 39 -32
43 0 4 -4 84 -8 178 -7 129 -13 180 -26 208 -17 35 -49 66 -69 66 -14 0 0
-142 18 -175 20 -38 21 -89 1 -105 -8 -7 -15 -27 -15 -44 0 -51 -12 -106 -21
-100 -5 3 -9 38 -9 79 0 67 -2 74 -23 82 -25 9 -1311 7 -1914 -3 l-393 -6 0
-77 c0 -98 -16 -126 -25 -45 -3 32 -7 66 -8 74 -1 8 -13 17 -27 20 -39 9 -39
59 -1 119 17 26 31 56 31 67 0 32 12 64 21 58 5 -3 9 -28 9 -55 l0 -51 1008 6
c1033 6 1247 11 1288 26 21 8 24 16 24 64 0 50 -3 56 -27 68 -20 10 -30 25
-39 63 -27 108 -58 429 -66 682 l-3 93 44 40 c35 32 42 44 37 62 -25 81 -34
781 -12 831 5 9 14 17 22 17 17 0 34 31 34 61 0 13 -9 41 -20 63 -37 77 -70
377 -70 637 0 209 8 240 89 332 76 84 82 96 91 172 7 54 14 70 53 118 25 31
66 98 90 150 49 102 90 165 174 265 74 88 86 113 77 168 -4 30 -2 49 6 59 7 9
16 52 21 98 4 45 15 97 24 115 32 63 -3 131 -86 166 -20 8 -107 33 -193 56
-86 22 -175 47 -199 56 -62 24 -101 27 -144 14 -59 -19 -66 -28 -48 -57 9 -13
13 -33 10 -43 -11 -34 -84 -119 -116 -136 -64 -33 -159 -12 -159 35 0 9 -11
39 -25 66 -13 28 -25 62 -25 76 0 15 -8 53 -19 85 -10 33 -21 86 -25 119 -22
199 -47 244 -179 332 -82 54 -109 88 -151 190 -31 76 -33 78 -64 75 -30 -2
-43 10 -23 23 5 3 12 18 16 35 3 16 20 47 36 69 35 49 35 54 8 212 -19 111
-20 134 -9 219 13 110 32 182 59 226 21 34 42 43 284 119 152 47 189 71 95 61
-29 -3 -114 -10 -188 -16 -74 -6 -147 -13 -162 -15 -26 -4 -28 -2 -28 27 0 48
28 83 201 248 89 85 157 156 152 157 -6 2 -69 -32 -141 -76 -71 -44 -169 -101
-217 -127 -75 -40 -90 -45 -111 -36 -35 16 -31 44 22 174 43 103 124 322 124
333 0 23 -36 -21 -144 -179 -69 -101 -135 -191 -145 -200 -13 -12 -32 -16 -58
-14 -36 3 -38 5 -50 51 -6 26 -24 138 -38 250 -25 188 -35 230 -51 214 -4 -3
-19 -102 -34 -219 -16 -117 -32 -226 -35 -243 -9 -37 -33 -65 -55 -65 -10 0
-53 50 -105 123 -183 252 -225 307 -234 307 -11 0 3 -46 69 -230 75 -207 106
-274 125 -266 22 8 18 -6 -10 -37 -14 -15 -34 -27 -43 -27 -10 0 -80 38 -157
85 -139 85 -159 93 -169 76 -14 -22 21 -69 134 -179 150 -146 154 -162 44
-177 -62 -9 -75 -20 -68 -55 8 -36 -10 -70 -33 -64 -14 4 -27 -12 -56 -65 -36
-67 -75 -115 -43 -54 41 80 47 293 10 334 -17 19 -19 46 -26 282 -6 208 -12
282 -28 357 -49 223 -61 290 -67 374 -5 66 -11 94 -24 107 -17 17 -17 20 9 66
23 41 27 59 27 128 -1 55 -8 102 -24 150 -42 128 -109 219 -127 171z m2556
-4092 c-22 -38 -40 -65 -40 -61 0 11 28 66 53 104 37 55 29 29 -13 -43z"/>
<path d="M2020 11877 c-90 -30 -97 -47 -81 -184 12 -101 31 -173 52 -200 15
-18 46 -16 53 3 12 32 5 62 -29 118 -19 32 -35 62 -35 66 0 22 43 43 84 42 54
-2 79 19 52 46 -12 12 -33 17 -71 17 -30 0 -55 3 -55 8 0 4 32 7 70 7 79 0 97
14 64 52 -19 21 -19 21 3 16 30 -8 39 8 14 21 -28 15 -47 13 -121 -12z"/>
<path d="M2161 11802 c-6 -11 -11 -30 -11 -41 0 -11 -10 -30 -22 -41 -21 -19
-23 -31 -26 -150 l-4 -130 -31 -8 c-58 -15 -44 -32 26 -32 104 0 97 -15 97
204 0 192 -7 239 -29 198z"/>
<path d="M2470 10271 c0 -48 16 -94 30 -86 11 7 14 84 4 109 -12 32 -34 17
-34 -23z"/>
<path d="M3108 3900 c-102 -71 -128 -101 -128 -145 0 -41 -8 -48 -35 -31 -20
13 -25 13 -43 0 -24 -17 -52 -100 -52 -155 0 -33 -3 -37 -31 -43 -17 -3 -121
-6 -230 -6 l-199 0 0 33 c0 71 13 137 26 137 8 0 14 -4 14 -9 0 -5 14 -11 31
-15 l32 -6 -34 -23 c-29 -19 -34 -29 -34 -62 l0 -40 155 1 c171 1 210 10 210
47 0 40 -34 61 -108 65 -37 2 -74 10 -82 17 -8 6 -24 16 -35 20 -13 6 27 11
115 15 147 7 180 14 180 35 0 22 -52 27 -283 23 -269 -4 -260 1 -265 -144 l-4
-95 -223 3 c-123 2 -226 6 -230 10 -4 4 -9 38 -12 75 -6 96 -10 111 -35 124
-18 10 -24 8 -40 -11 -14 -18 -18 -40 -18 -110 0 -49 4 -99 9 -112 5 -13 36
-56 70 -96 33 -40 65 -88 70 -107 6 -23 3 -119 -10 -297 -10 -145 -19 -300
-19 -344 l0 -81 46 -7 c68 -9 471 -7 522 3 80 16 86 33 103 288 18 265 -4 396
-74 447 -27 20 -45 21 -273 25 l-244 3 -50 55 c-28 31 -49 61 -47 67 7 20 192
24 1277 25 1114 1 1440 -4 1440 -23 0 -6 -23 -40 -52 -75 l-52 -63 -255 3
-255 4 -19 -50 c-26 -70 -37 -81 -51 -53 -9 18 -21 24 -61 26 -97 6 -91 19
-98 -200 -4 -106 -11 -206 -15 -223 -8 -28 -12 -30 -61 -33 -52 -3 -52 -3 -39
20 17 31 18 363 1 394 -10 17 -18 19 -60 15 -37 -5 -50 -11 -58 -28 -15 -34
-24 -28 -27 20 l-3 42 -63 -2 c-35 -1 -70 -4 -78 -7 -11 -4 -14 -43 -15 -198
-1 -106 -4 -206 -8 -223 -6 -28 -9 -30 -54 -29 -25 0 -49 3 -52 5 -2 3 0 21 5
40 12 39 2 314 -12 342 -13 25 -43 21 -66 -8 l-20 -25 -9 37 c-10 42 -27 50
-109 52 l-51 1 -7 -92 c-3 -50 -6 -151 -6 -225 l0 -133 -95 0 -95 0 0 27 c0
25 1 25 18 10 24 -22 35 -21 58 4 17 18 19 41 22 174 4 160 -3 195 -37 195
-19 0 -43 -23 -56 -55 -6 -16 -9 -12 -16 24 -5 24 -11 46 -14 49 -8 8 -118 22
-127 16 -4 -3 -8 -156 -8 -340 l0 -335 73 3 c71 3 72 3 81 34 l9 32 32 -34
c43 -45 78 -46 105 -1 26 42 26 93 1 107 -11 5 -47 10 -80 10 -34 0 -61 4 -61
10 0 6 40 10 100 10 l100 0 0 -85 0 -85 53 0 c71 0 101 17 108 60 l6 35 12
-30 c19 -45 41 -65 73 -65 38 0 75 38 84 85 9 52 -15 74 -89 82 -31 3 -57 10
-57 14 0 10 97 12 153 3 l37 -7 0 -83 c0 -45 3 -85 8 -87 4 -2 40 -2 80 1 68
4 72 6 78 31 15 66 15 66 40 23 30 -51 72 -67 119 -48 38 16 55 42 55 85 0 43
-31 60 -125 68 -53 4 -73 9 -60 14 25 9 137 11 188 3 l37 -7 0 -67 c0 -95 3
-100 60 -100 81 0 98 11 102 67 l4 48 24 -52 24 -53 277 0 c153 0 284 3 293 6
23 9 21 31 -21 365 l-37 297 59 67 c94 105 96 108 102 183 8 102 -5 242 -24
249 -26 10 -40 -23 -46 -108 -8 -115 -5 -113 -190 -117 -84 -2 -170 -1 -193 3
l-41 6 -6 64 c-9 91 -42 147 -74 127 -14 -9 -30 -69 -38 -144 l-7 -58 -193 0
c-235 0 -233 -1 -237 104 -2 53 -7 71 -20 80 -30 18 -53 -4 -56 -55 -5 -91
-11 -107 -44 -118 -33 -12 -406 -15 -470 -5 -37 6 -38 8 -38 48 0 72 8 86 46
86 37 0 46 -15 14 -25 -28 -9 -42 -39 -31 -68 12 -32 45 -37 256 -37 180 0
195 4 195 45 0 34 -34 57 -90 63 -68 6 -54 19 31 28 59 6 72 10 81 29 17 37
-8 105 -56 150 -36 34 -166 115 -185 115 -4 0 -46 -27 -93 -60z"/>
<path d="M3487 3774 c-14 -14 -7 -35 11 -32 9 2 17 10 17 17 0 16 -18 25 -28
15z"/>
<path d="M3755 3771 c-186 -13 -230 -26 -183 -53 17 -9 73 -13 203 -12 162 0
185 2 233 22 44 18 57 20 75 10 28 -15 360 -18 367 -3 3 6 -13 16 -35 24 -47
16 -485 24 -660 12z"/>
<path d="M2035 3753 c-37 -8 -75 -25 -75 -34 0 -16 51 -21 178 -17 126 4 177
17 169 41 -4 12 -228 20 -272 10z"/>
<path d="M2010 3684 c-8 -1 -36 -6 -62 -9 -27 -3 -48 -11 -48 -17 0 -8 42 -9
143 -5 146 6 181 12 171 28 -5 8 -169 11 -204 3z"/>
<path d="M2720 3680 c0 -5 16 -10 35 -10 19 0 35 5 35 10 0 6 -16 10 -35 10
-19 0 -35 -4 -35 -10z"/>
<path d="M3744 3675 c-22 -17 -60 -20 -69 -5 -12 19 -24 10 -51 -35 -25 -43
-25 -47 -10 -70 21 -31 57 -38 195 -33 88 2 114 6 128 20 22 22 6 55 -40 82
l-32 19 28 11 c47 17 30 26 -51 26 -53 0 -84 -5 -98 -15z"/>
<path d="M4165 3657 c-46 -46 -49 -93 -7 -104 49 -14 264 -6 305 11 43 18 46
34 13 73 -21 25 -34 29 -103 35 -43 4 -99 10 -125 14 -45 6 -50 4 -83 -29z"/>
<path d="M1887 3612 c-10 -11 -17 -31 -15 -44 3 -23 3 -23 163 -23 210 0 239
9 201 61 -13 17 -30 19 -173 22 -148 4 -159 3 -176 -16z"/>
<path d="M2530 3311 c-13 -9 -13 -13 3 -28 15 -15 33 -18 97 -16 84 2 130 17
112 35 -15 15 -193 22 -212 9z"/>
<path d="M2902 3312 c-22 -14 -2 -41 35 -48 39 -7 161 10 176 25 22 22 -7 31
-101 31 -53 0 -103 -4 -110 -8z"/>
<path d="M3290 3310 c-26 -16 0 -25 85 -28 86 -4 143 11 114 29 -19 12 -180
11 -199 -1z"/>
<path d="M3691 3306 c-9 -10 -8 -16 4 -26 19 -16 216 -1 222 16 6 17 -32 24
-128 24 -61 0 -90 -4 -98 -14z"/>
<path d="M3450 2528 c-239 -4 -535 -11 -657 -14 l-223 -6 0 -104 c0 -56 4
-105 9 -108 15 -10 112 7 127 21 8 8 14 31 14 51 0 71 -34 67 509 67 384 0
493 -3 503 -13 7 -7 15 -36 18 -65 l5 -52 66 -3 c62 -3 67 -1 73 20 8 33 7
218 -1 216 -5 -1 -204 -5 -443 -10z"/>
<path d="M4025 2523 c-80 -17 -95 -41 -95 -149 l0 -74 198 5 c345 10 423 15
429 32 5 13 -13 152 -24 180 -4 10 -56 13 -247 12 -132 -1 -250 -3 -261 -6z"/>
<path d="M1856 2488 c-3 -13 -6 -62 -6 -110 l0 -88 188 0 c103 0 248 5 322 10
118 9 137 13 153 31 18 22 23 88 11 148 l-6 31 -328 0 -328 0 -6 -22z"/>
<path d="M2922 2278 l-1083 -11 3 -41 3 -41 200 3 c110 1 684 7 1275 12 591 6
1107 13 1145 16 77 7 105 18 105 38 0 8 -8 17 -17 21 -33 12 -539 13 -1631 3z"/>
<path d="M4438 2189 c-10 -5 -18 -19 -18 -30 0 -24 -27 -79 -39 -79 -14 0 -33
-53 -40 -112 l-7 -58 68 0 c65 0 70 2 85 28 l16 28 28 -28 c19 -19 38 -28 61
-28 49 0 63 -12 47 -38 -8 -12 -20 -24 -29 -28 -34 -14 -486 -23 -1550 -29
-744 -5 -1151 -4 -1203 3 -57 7 -90 18 -120 38 l-41 27 17 -26 c9 -15 25 -39
34 -54 22 -34 22 -118 0 -158 -10 -16 -32 -51 -51 -76 -32 -46 -33 -49 -39
-182 -4 -75 -12 -179 -17 -232 -6 -52 -8 -100 -5 -105 7 -11 693 -12 1075 -1
l224 6 7 34 c4 19 4 95 1 169 l-7 135 50 45 c27 25 67 56 88 70 20 13 37 28
37 32 0 15 -191 18 -746 13 -414 -5 -576 -3 -590 5 -17 10 -15 11 14 12 127 1
680 22 691 26 11 3 6 13 -17 37 -36 37 -43 85 -16 111 22 23 34 20 34 -7 0
-31 32 -59 76 -66 l36 -6 -22 -27 c-12 -15 -18 -32 -15 -38 7 -11 198 -14 209
-3 3 4 -7 19 -24 34 -32 30 -37 53 -18 94 13 30 24 32 33 6 3 -11 15 -31 27
-46 16 -21 26 -25 49 -20 34 8 50 -15 29 -40 -7 -9 -10 -19 -6 -23 18 -17
1586 2 1586 19 0 5 -13 15 -30 24 -23 12 -30 22 -30 46 0 45 18 73 36 58 8 -6
14 -17 14 -25 0 -22 30 -44 61 -44 l30 0 -21 -30 c-25 -36 -24 -36 73 -43 38
-3 74 -10 80 -16 8 -8 -20 -11 -103 -11 -248 -1 -1155 -20 -1172 -26 -10 -3
-18 -10 -18 -15 0 -5 31 -41 69 -79 81 -83 83 -89 80 -268 l-1 -127 353 3
c427 4 938 17 946 25 7 8 -44 340 -64 417 -8 30 -21 64 -29 75 -83 112 -85
124 -50 254 16 60 26 124 26 165 0 61 -3 70 -27 89 -14 12 -41 37 -59 54 -50
50 -122 68 -166 42z"/>
<path d="M4120 2181 l-95 -6 -2 -33 c-1 -19 -8 -41 -17 -51 -46 -50 -63 -171
-27 -191 33 -17 76 -11 115 15 34 23 39 24 59 10 12 -9 43 -15 74 -15 43 0 53
3 58 20 11 35 -4 59 -45 71 -41 12 -45 29 -7 29 34 0 65 26 73 62 3 18 13 43
21 55 29 44 16 47 -207 34z"/>
<path d="M2560 2169 c-111 -9 -130 -19 -130 -65 0 -16 -11 -28 -37 -41 -36
-17 -38 -21 -49 -85 -7 -46 -7 -71 0 -78 5 -5 41 -10 79 -10 59 0 71 3 89 23
l21 23 23 -23 c21 -21 32 -24 81 -21 66 4 83 20 67 65 -7 23 -16 29 -44 31
-95 7 -102 28 -13 39 28 3 56 8 61 12 12 7 33 121 25 134 -5 8 -27 8 -173 -4z"/>
<path d="M2940 2173 c-77 -6 -88 -11 -100 -48 -6 -19 -23 -44 -38 -56 -40 -31
-51 -58 -52 -121 l0 -58 80 0 c67 0 83 3 97 19 16 19 17 19 54 0 45 -22 102
-25 118 -5 24 28 9 69 -33 93 l-40 22 30 6 c77 17 77 18 95 88 l17 67 -92 -2
c-50 -1 -111 -3 -136 -5z"/>
<path d="M3322 2173 c-48 -4 -54 -7 -77 -43 -13 -21 -35 -49 -49 -63 -28 -28
-50 -99 -42 -133 9 -34 38 -45 109 -42 51 2 64 7 71 24 9 20 9 20 33 -3 20
-21 31 -24 81 -21 l57 3 0 35 c0 31 -4 37 -43 55 -47 22 -50 39 -6 43 67 6 71
9 78 58 3 26 11 53 18 61 9 11 9 17 -3 24 -13 8 -117 9 -227 2z"/>
<path d="M3648 2169 c-10 -5 -18 -20 -18 -32 0 -11 -15 -36 -32 -55 -31 -31
-33 -39 -37 -113 l-3 -79 67 0 c71 0 105 12 105 35 0 21 9 19 36 -11 21 -22
31 -25 77 -22 49 3 52 5 55 31 5 41 -21 75 -60 79 -48 4 -40 22 12 26 54 4 70
16 70 53 0 15 5 40 12 54 10 22 9 28 -3 36 -19 12 -260 11 -281 -2z"/>
<path d="M2135 2160 c-96 -9 -112 -15 -121 -43 -4 -12 -23 -40 -44 -63 -41
-44 -56 -97 -40 -138 9 -24 14 -26 69 -26 76 0 91 6 91 37 l0 25 29 -31 c26
-28 35 -31 89 -31 76 0 92 6 92 35 0 31 -23 53 -65 61 -48 9 -44 20 9 28 51 8
58 15 81 76 32 87 35 80 -41 79 -38 -1 -105 -5 -149 -9z"/>
<path d="M1780 2142 c-61 -33 -80 -73 -80 -168 l0 -84 75 0 c127 0 162 38 81
90 l-39 25 39 5 c47 6 65 35 62 100 l-3 45 -50 3 c-34 2 -61 -3 -85 -16z"/>
<path d="M3164 1522 c-88 -58 -164 -121 -164 -136 0 -23 54 -29 230 -28 180 2
250 9 250 24 0 29 -198 178 -235 178 -12 0 -48 -17 -81 -38z"/>
<path d="M3348 1283 c-3 -85 -1 -123 6 -130 3 -4 17 4 31 17 28 26 40 21 40
-17 0 -33 27 -52 49 -34 12 10 16 32 16 91 0 97 -13 115 -87 124 l-53 7 -2
-58z"/>
<path d="M3007 1323 c-4 -3 -7 -37 -7 -75 0 -50 4 -68 13 -68 8 0 30 -18 51
-40 42 -46 58 -49 80 -18 22 31 22 170 0 192 -16 16 -123 23 -137 9z"/>
<path d="M3339 1089 c-15 -29 -3 -106 19 -118 9 -5 39 -12 66 -16 57 -9 66 -1
66 61 0 50 -14 64 -61 64 -20 0 -42 7 -49 15 -17 20 -27 19 -41 -6z"/>
<path d="M3005 1067 c-4 -8 -5 -39 -3 -68 3 -60 -1 -58 85 -43 53 8 75 32 71
75 -3 32 -4 32 -58 34 -30 1 -63 5 -72 9 -12 5 -20 3 -23 -7z"/>
<path d="M4355 1038 c-159 -4 -412 -11 -562 -15 -149 -5 -275 -11 -279 -15 -4
-4 1 -26 11 -49 l19 -41 241 6 c132 3 375 8 540 11 165 3 347 8 404 11 l103 6
-5 35 c-3 19 -11 41 -18 49 -13 16 3 15 -454 2z"/>
<path d="M1933 1013 l-303 -3 0 -34 c0 -19 -3 -42 -6 -51 -6 -14 48 -15 634
-13 l640 3 27 25 c15 14 25 33 23 45 -3 17 -13 21 -73 26 -70 6 -363 7 -942 2z"/>
<path d="M3075 923 c-11 -46 -51 -90 -130 -143 -40 -27 -81 -60 -89 -72 -22
-31 -21 -107 0 -115 9 -3 103 8 208 26 105 17 212 31 238 31 25 0 99 -11 164
-25 139 -31 249 -37 249 -16 0 8 -45 38 -100 68 -55 30 -137 79 -181 109 l-81
54 -106 0 -105 0 -54 -46 c-52 -44 -175 -120 -183 -112 -2 2 33 29 78 59 45
31 92 71 105 90 13 19 29 37 36 41 8 4 70 8 139 9 l126 1 55 -49 c86 -79 266
-177 266 -145 0 14 -66 72 -138 121 -33 22 -64 47 -68 53 -5 7 5 4 21 -6 71
-47 183 -115 223 -135 31 -16 42 -27 42 -45 0 -20 16 -36 36 -36 3 0 20 16 38
36 27 30 38 36 59 30 24 -6 26 -11 32 -85 l7 -78 122 -17 c160 -22 750 -113
849 -130 73 -13 111 -26 75 -26 -19 0 -279 40 -488 75 -80 13 -272 43 -428 65
-155 22 -388 58 -516 80 -259 44 -269 45 -264 28 7 -20 110 -44 357 -84 124
-20 233 -40 241 -45 13 -7 13 -8 0 -9 -19 0 -234 32 -412 61 -75 12 -143 19
-152 16 -14 -6 -16 -37 -16 -258 l0 -252 -98 5 c-72 4 -105 10 -126 23 -28 18
-29 18 -43 -1 -12 -17 -26 -19 -125 -18 -103 0 -112 2 -129 23 -11 14 -19 39
-19 62 0 28 -4 39 -15 39 -15 0 -22 -20 -27 -75 -3 -30 -3 -30 -71 -33 -85 -4
-97 5 -98 72 l-1 51 -13 -41 c-23 -72 -33 -84 -69 -84 -48 0 -53 13 -10 26 35
10 39 15 46 54 8 48 32 80 60 80 38 0 65 123 34 149 -15 13 -74 2 -105 -18
-16 -10 2 -17 59 -23 14 -2 26 -10 28 -21 4 -21 -41 -42 -115 -52 -46 -6 -54
-5 -59 12 -12 38 -22 48 -53 51 -33 3 -42 -11 -15 -26 9 -5 19 -24 23 -43 6
-28 12 -35 44 -42 27 -7 39 -15 43 -33 8 -32 -10 -52 -55 -60 -48 -9 -54 -13
-40 -30 6 -8 9 -17 5 -21 -3 -3 -54 -8 -112 -11 -92 -4 -108 -2 -116 12 -12
22 -33 20 -49 -5 -14 -19 -18 -20 -147 -9 -145 12 -185 21 -176 44 7 20 28 26
100 33 80 7 112 -1 116 -30 2 -17 11 -23 36 -25 31 -3 43 10 22 23 -15 9 -12
36 7 57 19 21 21 21 -89 18 -77 -2 -78 -1 -78 24 0 37 -17 41 -35 6 -8 -16
-32 -38 -53 -49 -20 -10 -49 -33 -65 -50 -24 -27 -34 -31 -78 -31 -29 0 -69
-5 -89 -11 -61 -19 -184 -3 -220 28 -29 24 -31 24 -56 8 -31 -20 -29 -51 7
-77 25 -19 46 -20 565 -19 886 2 1726 19 1743 36 8 8 16 44 19 90 5 80 13 93
68 109 18 6 20 3 16 -24 -2 -16 0 -30 6 -30 16 0 35 29 28 45 -4 12 3 15 37
15 23 0 51 -7 61 -15 11 -8 28 -13 37 -10 9 3 25 -2 34 -12 15 -14 17 -30 12
-95 l-5 -78 274 0 274 0 0 58 c0 75 8 102 31 102 27 0 49 -39 49 -87 0 -35 5
-46 27 -60 24 -16 52 -18 271 -16 169 1 248 6 258 14 11 9 14 41 14 139 l0
127 -142 6 c-126 5 -228 20 -216 33 3 2 60 -3 127 -12 101 -14 131 -15 177 -5
57 13 72 35 32 46 -13 3 -44 15 -69 26 l-45 21 -13 86 c-21 153 -69 374 -83
388 -10 10 -83 11 -383 3 -203 -5 -522 -13 -708 -17 l-338 -7 -23 30 -24 30
-170 3 -170 3 -7 -28z"/>
<path d="M2018 883 c-446 -3 -478 -4 -478 -21 0 -20 -36 -389 -46 -476 l-7
-59 29 5 c51 9 559 106 832 159 l262 51 0 72 c0 43 5 77 12 84 20 20 48 14 58
-13 14 -37 53 -33 84 8 14 19 41 38 59 44 41 12 169 86 187 108 8 10 10 19 4
25 -12 12 -402 18 -996 13z"/>
<path d="M3760 637 c0 -30 4 -46 10 -42 13 8 13 55 0 75 -7 11 -10 2 -10 -33z"/>
<path d="M2652 613 c3 -55 19 -80 32 -48 7 20 -13 105 -26 105 -5 0 -8 -26 -6
-57z"/>
<path d="M2810 630 c0 -25 4 -39 10 -35 6 3 10 19 10 35 0 16 -4 32 -10 35 -6
4 -10 -10 -10 -35z"/>
<path d="M3921 615 c1 -43 2 -46 10 -24 6 16 6 35 0 50 -8 20 -10 16 -10 -26z"/>
<path d="M2705 620 c-4 -7 -3 -16 3 -22 14 -14 47 -6 47 12 0 18 -40 26 -50
10z"/>
<path d="M2970 585 c-129 -24 -431 -80 -670 -124 -239 -45 -558 -102 -709
-128 l-273 -47 -25 -33 c-27 -35 -40 -99 -24 -123 8 -12 13 -11 34 8 13 12 48
30 78 40 30 9 53 22 51 27 -2 6 -29 9 -62 8 -66 -3 -79 10 -27 26 17 6 230 46
472 90 866 158 1453 268 1464 275 20 13 1 26 -37 25 -20 0 -143 -20 -272 -44z"/>
<path d="M3816 614 c-4 -9 -4 -19 -2 -22 10 -9 36 8 36 23 0 20 -26 19 -34 -1z"/>
<path d="M2970 520 c0 -6 6 -19 12 -30 11 -17 8 -24 -22 -56 l-35 -36 50 7
c109 15 118 28 64 90 -29 33 -69 47 -69 25z"/>
<path d="M3262 497 c-40 -41 -40 -47 -2 -47 34 0 54 28 42 59 -7 21 -9 20 -40
-12z"/>
<path d="M2697 463 c-4 -3 -7 -19 -7 -35 0 -15 -4 -28 -10 -28 -16 0 -12 -20
5 -26 8 -4 26 -3 40 0 18 5 25 13 25 32 0 47 -31 80 -53 57z"/>
<path d="M2250 376 c0 -9 7 -33 15 -53 12 -27 18 -34 27 -25 8 8 7 21 -3 48
-15 39 -39 57 -39 30z"/>
<path d="M3268 359 c-21 -12 -24 -49 -5 -49 19 0 37 21 37 42 0 20 -7 22 -32
7z"/>
<path d="M3100 339 c-58 -10 -76 -21 -66 -38 11 -17 87 -12 134 9 78 35 49 48
-68 29z"/>
<path d="M1954 316 c-3 -8 -4 -27 -2 -43 2 -22 8 -28 28 -28 20 0 26 6 28 28
5 45 -40 80 -54 43z"/>
<path d="M2865 319 c-22 -5 -50 -11 -62 -14 -23 -5 -31 -29 -14 -39 5 -3 28 1
51 9 23 8 62 15 85 15 40 0 73 19 58 33 -9 9 -69 7 -118 -4z"/>
<path d="M2136 273 c-3 -3 -6 -21 -6 -39 0 -38 27 -59 61 -49 20 7 20 8 -5 34
-14 15 -26 32 -26 38 0 15 -15 25 -24 16z"/>
<path d="M2655 270 c-3 -6 -3 -19 0 -30 5 -14 2 -20 -9 -20 -23 0 -20 -17 9
-45 40 -41 78 -31 90 23 3 17 11 32 16 32 17 0 9 29 -10 40 -25 13 -88 13 -96
0z"/>
<path d="M1554 246 c-29 -22 -5 -39 52 -38 48 0 82 21 70 41 -10 16 -99 13
-122 -3z"/>
<path d="M3074 247 c-8 -21 1 -47 16 -47 19 0 23 31 7 48 -15 14 -17 14 -23
-1z"/>
<path d="M3216 221 c-6 -10 37 -31 64 -31 27 0 34 17 11 29 -24 13 -68 14 -75
2z"/>
<path d="M3820 186 c0 -49 11 -64 30 -42 17 22 9 80 -12 84 -15 3 -18 -4 -18
-42z"/>
<path d="M2945 199 c-42 -10 -71 -29 -43 -29 8 0 21 -7 28 -15 11 -13 9 -20
-9 -38 -28 -30 -27 -37 7 -37 37 0 72 26 72 54 0 13 9 35 21 50 l20 26 -28 -1
c-15 -1 -46 -5 -68 -10z"/>
<path d="M2267 179 c-8 -30 3 -81 17 -76 14 5 14 89 0 94 -6 2 -14 -6 -17 -18z"/>
<path d="M1461 175 c-41 -8 -81 -21 -90 -31 -15 -15 -12 -16 39 -10 30 3 93
12 140 19 75 12 82 15 63 25 -27 15 -57 14 -152 -3z"/>
<path d="M3657 183 c-9 -8 -9 -116 -1 -137 3 -9 12 -16 20 -16 11 0 14 16 14
64 0 83 -11 112 -33 89z"/>
<path d="M3900 120 c0 -32 4 -49 10 -45 6 3 10 24 10 45 0 21 -4 42 -10 45 -6
4 -10 -13 -10 -45z"/>
<path d="M4512 113 c2 -34 8 -58 16 -61 13 -4 16 35 6 87 -11 52 -25 35 -22
-26z"/>
<path d="M1595 130 c-8 -14 3 -30 21 -30 8 0 14 9 14 20 0 21 -24 28 -35 10z"/>
<path d="M3750 111 c-21 -6 -25 -13 -25 -41 l0 -35 45 3 c70 4 88 10 96 34 12
40 -44 59 -116 39z"/>
<path d="M3200 90 c0 -5 18 -10 39 -10 22 0 43 5 46 10 4 6 -12 10 -39 10 -25
0 -46 -4 -46 -10z"/>
</g>
</svg>
